<svg width="38" height="29" viewBox="0 0 38 29" fill="none" xmlns="http://www.w3.org/2000/svg">
<path d="M33.4966 10.3648L32.3866 24.973L34.1132 22.5617L35.922 5.38153L18.4301 16.8149L14.5659 12.7761L3.19922 3.25159L17.6285 19.6481C18.1012 20.1706 18.9029 20.271 19.4784 19.8692L33.4966 10.3648Z" fill="#C2B8FF"/>
<path d="M29.2013 4.33575C21.8222 5.90307 15.4914 5.96335 13.251 5.8026L15.142 7.7718C23.6516 7.34983 27.7625 6.04373 28.7696 5.44091C29.5096 4.89838 29.3657 4.47641 29.2013 4.33575Z" fill="#02C4FB"/>
<path d="M26.4877 7.91333C21.9246 9.25962 17.9576 9.54093 16.5393 9.52084L17.8137 10.8269C23.1167 10.2241 25.645 9.15915 26.2616 8.71708C26.6932 8.29511 26.5905 8.0138 26.4877 7.91333Z" fill="#573BFF"/>
<path d="M8.03007 4.13541C11.2982 4.45691 24.6998 4.01485 31.935 2.32697C35.4292 1.50312 34.6893 0.0362744 34.4015 0.076462C18.3073 2.28678 4.59747 0.900308 4.47414 0.880215C3.8575 0.759652 3.24087 1.06106 2.9531 1.5835C2.6859 2.12603 2.74756 2.78913 3.19976 3.2111L3.96028 4.01485C4.51525 4.15551 7.14623 4.25598 8.03007 4.13541Z" fill="#573BFF"/>
<path d="M10.8864 7.12982L7.86491 8.03404L17.5255 18.0809C18.0188 18.6034 18.7794 18.6637 19.3754 18.2819L34.8324 8.01395C34.0308 15.5089 33.0236 23.024 32.407 24.8526C28.9538 25.5558 8.99541 25.6563 6.17944 24.953C5.37782 23.5867 4.37065 17.1164 3.65124 10.3247C3.54847 9.29995 2.43852 8.65695 1.49302 9.09901C1.45191 9.11911 1.43135 9.1392 1.39024 9.15929C0.938044 9.42051 0.711944 9.92286 0.753053 10.4252C2.37686 26.2189 4.10344 27.1031 4.72007 27.4246C5.72724 27.9068 12.6336 28.2283 19.581 28.2082C26.5284 28.168 33.4553 27.8465 34.4008 27.0026C34.8324 26.6208 35.9629 25.6161 37.9362 6.02466L37.9567 5.84381C38.1828 4.21622 37.5045 3.63349 36.3124 3.73396C36.2918 3.73396 36.2712 3.73396 36.2507 3.75406C36.1685 3.77415 36.1479 3.81434 36.0863 3.85453C35.9835 3.91481 35.9835 3.91481 35.9013 3.955C35.8807 3.97509 35.7985 3.99518 35.7779 4.03537L18.7588 15.3281" fill="#573BFF"/>
<path d="M9.44626 5.60284L8.028 4.15608H8.04855L8.028 4.13599C7.14415 4.25655 4.51318 4.15608 3.97876 3.99533L7.90467 8.07438L10.9673 7.19025L9.44626 5.60284Z" fill="url(#paint0_linear_288_4758)"/>
<defs>
<linearGradient id="paint0_linear_288_4758" x1="6.35408" y1="3.86329" x2="8.69792" y2="7.66821" gradientUnits="userSpaceOnUse">
<stop stop-color="#0C0632"/>
<stop offset="1" stop-color="#573BFF"/>
</linearGradient>
</defs>
</svg>
